<svg width="500" height="250" viewBox="0 0 500 250" fill="none" xmlns="http://www.w3.org/2000/svg">
<g clip-path="url(#clip0)">
<path d="M56.7139 96.752L57.373 105.907C63.0371 98.8271 70.6299 95.2871 80.1514 95.2871C88.5498 95.2871 94.7998 97.7529 98.9014 102.685C103.003 107.616 105.103 114.989 105.2 124.804V176H84.0332V125.316C84.0332 120.824 83.0566 117.577 81.1035 115.575C79.1504 113.524 75.9033 112.499 71.3623 112.499C65.4053 112.499 60.9375 115.038 57.959 120.116V176H36.792V96.752H56.7139Z" fill="url(#paint0_linear)"/>
<path d="M167.236 176C166.26 174.096 165.552 171.728 165.112 168.896C159.985 174.608 153.32 177.465 145.117 177.465C137.354 177.465 130.908 175.219 125.781 170.727C120.703 166.234 118.164 160.57 118.164 153.734C118.164 145.336 121.265 138.891 127.466 134.398C133.716 129.906 142.725 127.636 154.492 127.587H164.233V123.046C164.233 119.384 163.281 116.454 161.377 114.257C159.521 112.06 156.567 110.961 152.515 110.961C148.95 110.961 146.143 111.815 144.092 113.524C142.09 115.233 141.089 117.577 141.089 120.556H119.922C119.922 115.966 121.338 111.718 124.17 107.812C127.002 103.905 131.006 100.854 136.182 98.6562C141.357 96.4102 147.168 95.2871 153.613 95.2871C163.379 95.2871 171.118 97.7529 176.831 102.685C182.593 107.567 185.474 114.452 185.474 123.339V157.689C185.522 165.209 186.572 170.897 188.623 174.755V176H167.236ZM149.731 161.278C152.856 161.278 155.737 160.595 158.374 159.228C161.011 157.812 162.964 155.932 164.233 153.588V139.965H156.323C145.728 139.965 140.088 143.627 139.404 150.951L139.331 152.196C139.331 154.833 140.259 157.006 142.114 158.715C143.97 160.424 146.509 161.278 149.731 161.278Z" fill="url(#paint1_linear)"/>
<path d="M350.269 177.465C338.647 177.465 329.175 173.9 321.851 166.771C314.575 159.643 310.938 150.146 310.938 138.28V136.229C310.938 128.271 312.476 121.166 315.552 114.916C318.628 108.617 322.974 103.783 328.589 100.414C334.253 96.9961 340.698 95.2871 347.925 95.2871C358.765 95.2871 367.285 98.7051 373.486 105.541C379.736 112.377 382.861 122.069 382.861 134.618V143.261H332.397C333.081 148.437 335.132 152.587 338.55 155.712C342.017 158.837 346.387 160.399 351.66 160.399C359.814 160.399 366.187 157.445 370.776 151.537L381.177 163.183C378.003 167.675 373.706 171.19 368.286 173.729C362.866 176.22 356.86 177.465 350.269 177.465ZM347.852 112.426C343.652 112.426 340.234 113.842 337.598 116.674C335.01 119.506 333.35 123.559 332.617 128.832H362.061V127.147C361.963 122.46 360.693 118.847 358.252 116.308C355.811 113.72 352.344 112.426 347.852 112.426Z" fill="url(#paint2_linear)"/>
<path d="M414.429 96.752L415.088 105.907C420.752 98.8271 428.345 95.2871 437.866 95.2871C446.265 95.2871 452.515 97.7529 456.616 102.685C460.718 107.616 462.817 114.989 462.915 124.804V176H441.748V125.316C441.748 120.824 440.771 117.577 438.818 115.575C436.865 113.524 433.618 112.499 429.077 112.499C423.12 112.499 418.652 115.038 415.674 120.116V176H394.507V96.752H414.429Z" fill="url(#paint3_linear)"/>
<path d="M250.146 166.232L289.404 44.5039H317.09L260.254 203H239.6L182.178 44.5039H209.863L250.146 166.232Z" fill="url(#paint4_linear)"/>
<path d="M38 44.5H192V69.5H38V44.5Z" fill="url(#paint5_linear)"/>
<path d="M308 44.5H462V69.5H308V44.5Z" fill="url(#paint6_linear)"/>
</g>
<defs>
<linearGradient id="paint0_linear" x1="249.854" y1="44.5" x2="249.854" y2="203" gradientUnits="userSpaceOnUse">
<stop stop-color="#0066FF"/>
<stop offset="0.734375" stop-color="#EB00FF"/>
</linearGradient>
<linearGradient id="paint1_linear" x1="249.854" y1="44.5" x2="249.854" y2="203" gradientUnits="userSpaceOnUse">
<stop stop-color="#0066FF"/>
<stop offset="0.734375" stop-color="#EB00FF"/>
</linearGradient>
<linearGradient id="paint2_linear" x1="249.854" y1="44.5" x2="249.854" y2="203" gradientUnits="userSpaceOnUse">
<stop stop-color="#0066FF"/>
<stop offset="0.734375" stop-color="#EB00FF"/>
</linearGradient>
<linearGradient id="paint3_linear" x1="249.854" y1="44.5" x2="249.854" y2="203" gradientUnits="userSpaceOnUse">
<stop stop-color="#0066FF"/>
<stop offset="0.734375" stop-color="#EB00FF"/>
</linearGradient>
<linearGradient id="paint4_linear" x1="249.854" y1="44.5" x2="249.854" y2="203" gradientUnits="userSpaceOnUse">
<stop stop-color="#0066FF"/>
<stop offset="0.734375" stop-color="#EB00FF"/>
</linearGradient>
<linearGradient id="paint5_linear" x1="249.854" y1="44.5" x2="249.854" y2="203" gradientUnits="userSpaceOnUse">
<stop stop-color="#0066FF"/>
<stop offset="0.734375" stop-color="#EB00FF"/>
</linearGradient>
<linearGradient id="paint6_linear" x1="249.854" y1="44.5" x2="249.854" y2="203" gradientUnits="userSpaceOnUse">
<stop stop-color="#0066FF"/>
<stop offset="0.734375" stop-color="#EB00FF"/>
</linearGradient>
<clipPath id="clip0">
<rect width="500" height="250" fill="white"/>
</clipPath>
</defs>
</svg>
